<svg width="24" height="24" viewBox="0 0 24 24" fill="none" xmlns="http://www.w3.org/2000/svg">
  <path d="M20.317 4.369A19.791 19.791 0 0 0 16.885 3.1a.077.077 0 0 0-.082.038c-.357.63-.755 1.453-1.037 2.104a18.524 18.524 0 0 0-5.522 0 12.51 12.51 0 0 0-1.05-2.104.077.077 0 0 0-.082-.038A19.736 19.736 0 0 0 3.684 4.369a.07.07 0 0 0-.032.027C1.533 7.462.366 10.463.396 13.428a.082.082 0 0 0 .028.057c2.104 1.547 4.144 2.488 6.13 3.115a.077.077 0 0 0 .084-.027c.472-.65.893-1.34 1.253-2.066a.076.076 0 0 0-.041-.104c-.669-.252-1.304-.56-1.917-.927a.077.077 0 0 1-.008-.127c.129-.098.258-.2.382-.304a.075.075 0 0 1 .077-.01c4.014 1.83 8.36 1.83 12.326 0a.075.075 0 0 1 .078.009c.124.104.253.206.382.304a.077.077 0 0 1-.007.127 12.298 12.298 0 0 1-1.918.928.076.076 0 0 0-.04.104c.36.726.78 1.416 1.253 2.066a.076.076 0 0 0 .084.027c1.987-.627 4.027-1.568 6.13-3.115a.077.077 0 0 0 .028-.057c.05-3.005-1.117-6.006-3.256-9.032a.07.07 0 0 0-.031-.027zM8.02 14.331c-.789 0-1.438-.724-1.438-1.612 0-.889.637-1.612 1.438-1.612.807 0 1.45.73 1.438 1.612 0 .888-.637 1.612-1.438 1.612zm7.974 0c-.789 0-1.438-.724-1.438-1.612 0-.889.637-1.612 1.438-1.612.807 0 1.45.73 1.438 1.612 0 .888-.631 1.612-1.438 1.612z" fill="#5865F2"/>
</svg> 