<svg width="24" height="24" viewBox="0 0 24 24" fill="none" xmlns="http://www.w3.org/2000/svg">
  <path d="M22.46 5.924c-.793.352-1.645.59-2.54.698a4.48 4.48 0 0 0 1.963-2.475 8.94 8.94 0 0 1-2.828 1.082A4.48 4.48 0 0 0 16.11 4c-2.48 0-4.49 2.017-4.49 4.504 0 .353.04.697.116 1.025C7.728 9.37 4.1 7.5 1.67 4.797a4.49 4.49 0 0 0-.61 2.267c0 1.563.793 2.944 2.003 3.755a4.47 4.47 0 0 1-2.034-.563v.057c0 2.183 1.553 4.004 3.617 4.42a4.51 4.51 0 0 1-2.027.077c.572 1.785 2.23 3.084 4.196 3.12A8.99 8.99 0 0 1 2 19.54a12.7 12.7 0 0 0 6.88 2.017c8.253 0 12.77-6.833 12.77-12.76 0-.195-.004-.39-.013-.583A9.13 9.13 0 0 0 24 4.59a8.98 8.98 0 0 1-2.54.697z" fill="#00acee"/>
</svg> 